<?xml version="1.0" encoding="utf-8" standalone="no"?>
<!DOCTYPE svg PUBLIC "-//W3C//DTD SVG 1.1//EN"
  "http://www.w3.org/Graphics/SVG/1.1/DTD/svg11.dtd">
<!-- Created with matplotlib (https://matplotlib.org/) -->
<svg height="351.274375pt" version="1.1" viewBox="0 0 496.179688 351.274375" width="496.179688pt" xmlns="http://www.w3.org/2000/svg" xmlns:xlink="http://www.w3.org/1999/xlink">
 <defs>
  <style type="text/css">
*{stroke-linecap:butt;stroke-linejoin:round;}
  </style>
 </defs>
 <g id="figure_1">
  <g id="patch_1">
   <path d="M 0 351.274375 
L 496.179688 351.274375 
L 496.179688 0 
L 0 0 
z
" style="fill:none;"/>
  </g>
  <g id="axes_1">
   <g id="patch_2">
    <path d="M 61.985938 313.718125 
L 488.979687 313.718125 
L 488.979687 22.318125 
L 61.985938 22.318125 
z
" style="fill:#ffffff;"/>
   </g>
   <g id="matplotlib.axis_1">
    <g id="xtick_1">
     <g id="line2d_1">
      <path clip-path="url(#pd090592e11)" d="M 109.121611 313.718125 
L 109.121611 22.318125 
" style="fill:none;stroke:#b0b0b0;stroke-linecap:square;stroke-opacity:0.5;stroke-width:0.8;"/>
     </g>
     <g id="line2d_2">
      <defs>
       <path d="M 0 0 
L 0 3.5 
" id="m7ccf8b405a" style="stroke:#000000;stroke-width:0.8;"/>
      </defs>
      <g>
       <use style="stroke:#000000;stroke-width:0.8;" x="109.121611" xlink:href="#m7ccf8b405a" y="313.718125"/>
      </g>
     </g>
     <g id="text_1">
      <!-- 5 -->
      <defs>
       <path d="M 10.796875 72.90625 
L 49.515625 72.90625 
L 49.515625 64.59375 
L 19.828125 64.59375 
L 19.828125 46.734375 
Q 21.96875 47.46875 24.109375 47.828125 
Q 26.265625 48.1875 28.421875 48.1875 
Q 40.625 48.1875 47.75 41.5 
Q 54.890625 34.8125 54.890625 23.390625 
Q 54.890625 11.625 47.5625 5.09375 
Q 40.234375 -1.421875 26.90625 -1.421875 
Q 22.3125 -1.421875 17.546875 -0.640625 
Q 12.796875 0.140625 7.71875 1.703125 
L 7.71875 11.625 
Q 12.109375 9.234375 16.796875 8.0625 
Q 21.484375 6.890625 26.703125 6.890625 
Q 35.15625 6.890625 40.078125 11.328125 
Q 45.015625 15.765625 45.015625 23.390625 
Q 45.015625 31 40.078125 35.4375 
Q 35.15625 39.890625 26.703125 39.890625 
Q 22.75 39.890625 18.8125 39.015625 
Q 14.890625 38.140625 10.796875 36.28125 
z
" id="DejaVuSans-53"/>
      </defs>
      <g transform="translate(105.940361 328.316562)scale(0.1 -0.1)">
       <use xlink:href="#DejaVuSans-53"/>
      </g>
     </g>
    </g>
    <g id="xtick_2">
     <g id="line2d_3">
      <path clip-path="url(#pd090592e11)" d="M 201.544501 313.718125 
L 201.544501 22.318125 
" style="fill:none;stroke:#b0b0b0;stroke-linecap:square;stroke-opacity:0.5;stroke-width:0.8;"/>
     </g>
     <g id="line2d_4">
      <g>
       <use style="stroke:#000000;stroke-width:0.8;" x="201.544501" xlink:href="#m7ccf8b405a" y="313.718125"/>
      </g>
     </g>
     <g id="text_2">
      <!-- 10 -->
      <defs>
       <path d="M 12.40625 8.296875 
L 28.515625 8.296875 
L 28.515625 63.921875 
L 10.984375 60.40625 
L 10.984375 69.390625 
L 28.421875 72.90625 
L 38.28125 72.90625 
L 38.28125 8.296875 
L 54.390625 8.296875 
L 54.390625 0 
L 12.40625 0 
z
" id="DejaVuSans-49"/>
       <path d="M 31.78125 66.40625 
Q 24.171875 66.40625 20.328125 58.90625 
Q 16.5 51.421875 16.5 36.375 
Q 16.5 21.390625 20.328125 13.890625 
Q 24.171875 6.390625 31.78125 6.390625 
Q 39.453125 6.390625 43.28125 13.890625 
Q 47.125 21.390625 47.125 36.375 
Q 47.125 51.421875 43.28125 58.90625 
Q 39.453125 66.40625 31.78125 66.40625 
z
M 31.78125 74.21875 
Q 44.046875 74.21875 50.515625 64.515625 
Q 56.984375 54.828125 56.984375 36.375 
Q 56.984375 17.96875 50.515625 8.265625 
Q 44.046875 -1.421875 31.78125 -1.421875 
Q 19.53125 -1.421875 13.0625 8.265625 
Q 6.59375 17.96875 6.59375 36.375 
Q 6.59375 54.828125 13.0625 64.515625 
Q 19.53125 74.21875 31.78125 74.21875 
z
" id="DejaVuSans-48"/>
      </defs>
      <g transform="translate(195.182001 328.316562)scale(0.1 -0.1)">
       <use xlink:href="#DejaVuSans-49"/>
       <use x="63.623047" xlink:href="#DejaVuSans-48"/>
      </g>
     </g>
    </g>
    <g id="xtick_3">
     <g id="line2d_5">
      <path clip-path="url(#pd090592e11)" d="M 293.96739 313.718125 
L 293.96739 22.318125 
" style="fill:none;stroke:#b0b0b0;stroke-linecap:square;stroke-opacity:0.5;stroke-width:0.8;"/>
     </g>
     <g id="line2d_6">
      <g>
       <use style="stroke:#000000;stroke-width:0.8;" x="293.96739" xlink:href="#m7ccf8b405a" y="313.718125"/>
      </g>
     </g>
     <g id="text_3">
      <!-- 15 -->
      <g transform="translate(287.60489 328.316562)scale(0.1 -0.1)">
       <use xlink:href="#DejaVuSans-49"/>
       <use x="63.623047" xlink:href="#DejaVuSans-53"/>
      </g>
     </g>
    </g>
    <g id="xtick_4">
     <g id="line2d_7">
      <path clip-path="url(#pd090592e11)" d="M 386.39028 313.718125 
L 386.39028 22.318125 
" style="fill:none;stroke:#b0b0b0;stroke-linecap:square;stroke-opacity:0.5;stroke-width:0.8;"/>
     </g>
     <g id="line2d_8">
      <g>
       <use style="stroke:#000000;stroke-width:0.8;" x="386.39028" xlink:href="#m7ccf8b405a" y="313.718125"/>
      </g>
     </g>
     <g id="text_4">
      <!-- 20 -->
      <defs>
       <path d="M 19.1875 8.296875 
L 53.609375 8.296875 
L 53.609375 0 
L 7.328125 0 
L 7.328125 8.296875 
Q 12.9375 14.109375 22.625 23.890625 
Q 32.328125 33.6875 34.8125 36.53125 
Q 39.546875 41.84375 41.421875 45.53125 
Q 43.3125 49.21875 43.3125 52.78125 
Q 43.3125 58.59375 39.234375 62.25 
Q 35.15625 65.921875 28.609375 65.921875 
Q 23.96875 65.921875 18.8125 64.3125 
Q 13.671875 62.703125 7.8125 59.421875 
L 7.8125 69.390625 
Q 13.765625 71.78125 18.9375 73 
Q 24.125 74.21875 28.421875 74.21875 
Q 39.75 74.21875 46.484375 68.546875 
Q 53.21875 62.890625 53.21875 53.421875 
Q 53.21875 48.921875 51.53125 44.890625 
Q 49.859375 40.875 45.40625 35.40625 
Q 44.1875 33.984375 37.640625 27.21875 
Q 31.109375 20.453125 19.1875 8.296875 
z
" id="DejaVuSans-50"/>
      </defs>
      <g transform="translate(380.02778 328.316562)scale(0.1 -0.1)">
       <use xlink:href="#DejaVuSans-50"/>
       <use x="63.623047" xlink:href="#DejaVuSans-48"/>
      </g>
     </g>
    </g>
    <g id="xtick_5">
     <g id="line2d_9">
      <path clip-path="url(#pd090592e11)" d="M 478.81317 313.718125 
L 478.81317 22.318125 
" style="fill:none;stroke:#b0b0b0;stroke-linecap:square;stroke-opacity:0.5;stroke-width:0.8;"/>
     </g>
     <g id="line2d_10">
      <g>
       <use style="stroke:#000000;stroke-width:0.8;" x="478.81317" xlink:href="#m7ccf8b405a" y="313.718125"/>
      </g>
     </g>
     <g id="text_5">
      <!-- 25 -->
      <g transform="translate(472.45067 328.316562)scale(0.1 -0.1)">
       <use xlink:href="#DejaVuSans-50"/>
       <use x="63.623047" xlink:href="#DejaVuSans-53"/>
      </g>
     </g>
    </g>
    <g id="text_6">
     <!-- Wind Speed [m/s] -->
     <defs>
      <path d="M 3.328125 72.90625 
L 13.28125 72.90625 
L 28.609375 11.28125 
L 43.890625 72.90625 
L 54.984375 72.90625 
L 70.3125 11.28125 
L 85.59375 72.90625 
L 95.609375 72.90625 
L 77.296875 0 
L 64.890625 0 
L 49.515625 63.28125 
L 33.984375 0 
L 21.578125 0 
z
" id="DejaVuSans-87"/>
      <path d="M 9.421875 54.6875 
L 18.40625 54.6875 
L 18.40625 0 
L 9.421875 0 
z
M 9.421875 75.984375 
L 18.40625 75.984375 
L 18.40625 64.59375 
L 9.421875 64.59375 
z
" id="DejaVuSans-105"/>
      <path d="M 54.890625 33.015625 
L 54.890625 0 
L 45.90625 0 
L 45.90625 32.71875 
Q 45.90625 40.484375 42.875 44.328125 
Q 39.84375 48.1875 33.796875 48.1875 
Q 26.515625 48.1875 22.3125 43.546875 
Q 18.109375 38.921875 18.109375 30.90625 
L 18.109375 0 
L 9.078125 0 
L 9.078125 54.6875 
L 18.109375 54.6875 
L 18.109375 46.1875 
Q 21.34375 51.125 25.703125 53.5625 
Q 30.078125 56 35.796875 56 
Q 45.21875 56 50.046875 50.171875 
Q 54.890625 44.34375 54.890625 33.015625 
z
" id="DejaVuSans-110"/>
      <path d="M 45.40625 46.390625 
L 45.40625 75.984375 
L 54.390625 75.984375 
L 54.390625 0 
L 45.40625 0 
L 45.40625 8.203125 
Q 42.578125 3.328125 38.25 0.953125 
Q 33.9375 -1.421875 27.875 -1.421875 
Q 17.96875 -1.421875 11.734375 6.484375 
Q 5.515625 14.40625 5.515625 27.296875 
Q 5.515625 40.1875 11.734375 48.09375 
Q 17.96875 56 27.875 56 
Q 33.9375 56 38.25 53.625 
Q 42.578125 51.265625 45.40625 46.390625 
z
M 14.796875 27.296875 
Q 14.796875 17.390625 18.875 11.75 
Q 22.953125 6.109375 30.078125 6.109375 
Q 37.203125 6.109375 41.296875 11.75 
Q 45.40625 17.390625 45.40625 27.296875 
Q 45.40625 37.203125 41.296875 42.84375 
Q 37.203125 48.484375 30.078125 48.484375 
Q 22.953125 48.484375 18.875 42.84375 
Q 14.796875 37.203125 14.796875 27.296875 
z
" id="DejaVuSans-100"/>
      <path id="DejaVuSans-32"/>
      <path d="M 53.515625 70.515625 
L 53.515625 60.890625 
Q 47.90625 63.578125 42.921875 64.890625 
Q 37.9375 66.21875 33.296875 66.21875 
Q 25.25 66.21875 20.875 63.09375 
Q 16.5 59.96875 16.5 54.203125 
Q 16.5 49.359375 19.40625 46.890625 
Q 22.3125 44.4375 30.421875 42.921875 
L 36.375 41.703125 
Q 47.40625 39.59375 52.65625 34.296875 
Q 57.90625 29 57.90625 20.125 
Q 57.90625 9.515625 50.796875 4.046875 
Q 43.703125 -1.421875 29.984375 -1.421875 
Q 24.8125 -1.421875 18.96875 -0.25 
Q 13.140625 0.921875 6.890625 3.21875 
L 6.890625 13.375 
Q 12.890625 10.015625 18.65625 8.296875 
Q 24.421875 6.59375 29.984375 6.59375 
Q 38.421875 6.59375 43.015625 9.90625 
Q 47.609375 13.234375 47.609375 19.390625 
Q 47.609375 24.75 44.3125 27.78125 
Q 41.015625 30.8125 33.5 32.328125 
L 27.484375 33.5 
Q 16.453125 35.6875 11.515625 40.375 
Q 6.59375 45.0625 6.59375 53.421875 
Q 6.59375 63.09375 13.40625 68.65625 
Q 20.21875 74.21875 32.171875 74.21875 
Q 37.3125 74.21875 42.625 73.28125 
Q 47.953125 72.359375 53.515625 70.515625 
z
" id="DejaVuSans-83"/>
      <path d="M 18.109375 8.203125 
L 18.109375 -20.796875 
L 9.078125 -20.796875 
L 9.078125 54.6875 
L 18.109375 54.6875 
L 18.109375 46.390625 
Q 20.953125 51.265625 25.265625 53.625 
Q 29.59375 56 35.59375 56 
Q 45.5625 56 51.78125 48.09375 
Q 58.015625 40.1875 58.015625 27.296875 
Q 58.015625 14.40625 51.78125 6.484375 
Q 45.5625 -1.421875 35.59375 -1.421875 
Q 29.59375 -1.421875 25.265625 0.953125 
Q 20.953125 3.328125 18.109375 8.203125 
z
M 48.6875 27.296875 
Q 48.6875 37.203125 44.609375 42.84375 
Q 40.53125 48.484375 33.40625 48.484375 
Q 26.265625 48.484375 22.1875 42.84375 
Q 18.109375 37.203125 18.109375 27.296875 
Q 18.109375 17.390625 22.1875 11.75 
Q 26.265625 6.109375 33.40625 6.109375 
Q 40.53125 6.109375 44.609375 11.75 
Q 48.6875 17.390625 48.6875 27.296875 
z
" id="DejaVuSans-112"/>
      <path d="M 56.203125 29.59375 
L 56.203125 25.203125 
L 14.890625 25.203125 
Q 15.484375 15.921875 20.484375 11.0625 
Q 25.484375 6.203125 34.421875 6.203125 
Q 39.59375 6.203125 44.453125 7.46875 
Q 49.3125 8.734375 54.109375 11.28125 
L 54.109375 2.78125 
Q 49.265625 0.734375 44.1875 -0.34375 
Q 39.109375 -1.421875 33.890625 -1.421875 
Q 20.796875 -1.421875 13.15625 6.1875 
Q 5.515625 13.8125 5.515625 26.8125 
Q 5.515625 40.234375 12.765625 48.109375 
Q 20.015625 56 32.328125 56 
Q 43.359375 56 49.78125 48.890625 
Q 56.203125 41.796875 56.203125 29.59375 
z
M 47.21875 32.234375 
Q 47.125 39.59375 43.09375 43.984375 
Q 39.0625 48.390625 32.421875 48.390625 
Q 24.90625 48.390625 20.390625 44.140625 
Q 15.875 39.890625 15.1875 32.171875 
z
" id="DejaVuSans-101"/>
      <path d="M 8.59375 75.984375 
L 29.296875 75.984375 
L 29.296875 69 
L 17.578125 69 
L 17.578125 -6.203125 
L 29.296875 -6.203125 
L 29.296875 -13.1875 
L 8.59375 -13.1875 
z
" id="DejaVuSans-91"/>
      <path d="M 52 44.1875 
Q 55.375 50.25 60.0625 53.125 
Q 64.75 56 71.09375 56 
Q 79.640625 56 84.28125 50.015625 
Q 88.921875 44.046875 88.921875 33.015625 
L 88.921875 0 
L 79.890625 0 
L 79.890625 32.71875 
Q 79.890625 40.578125 77.09375 44.375 
Q 74.3125 48.1875 68.609375 48.1875 
Q 61.625 48.1875 57.5625 43.546875 
Q 53.515625 38.921875 53.515625 30.90625 
L 53.515625 0 
L 44.484375 0 
L 44.484375 32.71875 
Q 44.484375 40.625 41.703125 44.40625 
Q 38.921875 48.1875 33.109375 48.1875 
Q 26.21875 48.1875 22.15625 43.53125 
Q 18.109375 38.875 18.109375 30.90625 
L 18.109375 0 
L 9.078125 0 
L 9.078125 54.6875 
L 18.109375 54.6875 
L 18.109375 46.1875 
Q 21.1875 51.21875 25.484375 53.609375 
Q 29.78125 56 35.6875 56 
Q 41.65625 56 45.828125 52.96875 
Q 50 49.953125 52 44.1875 
z
" id="DejaVuSans-109"/>
      <path d="M 25.390625 72.90625 
L 33.6875 72.90625 
L 8.296875 -9.28125 
L 0 -9.28125 
z
" id="DejaVuSans-47"/>
      <path d="M 44.28125 53.078125 
L 44.28125 44.578125 
Q 40.484375 46.53125 36.375 47.5 
Q 32.28125 48.484375 27.875 48.484375 
Q 21.1875 48.484375 17.84375 46.4375 
Q 14.5 44.390625 14.5 40.28125 
Q 14.5 37.15625 16.890625 35.375 
Q 19.28125 33.59375 26.515625 31.984375 
L 29.59375 31.296875 
Q 39.15625 29.25 43.1875 25.515625 
Q 47.21875 21.78125 47.21875 15.09375 
Q 47.21875 7.46875 41.1875 3.015625 
Q 35.15625 -1.421875 24.609375 -1.421875 
Q 20.21875 -1.421875 15.453125 -0.5625 
Q 10.6875 0.296875 5.421875 2 
L 5.421875 11.28125 
Q 10.40625 8.6875 15.234375 7.390625 
Q 20.0625 6.109375 24.8125 6.109375 
Q 31.15625 6.109375 34.5625 8.28125 
Q 37.984375 10.453125 37.984375 14.40625 
Q 37.984375 18.0625 35.515625 20.015625 
Q 33.0625 21.96875 24.703125 23.78125 
L 21.578125 24.515625 
Q 13.234375 26.265625 9.515625 29.90625 
Q 5.8125 33.546875 5.8125 39.890625 
Q 5.8125 47.609375 11.28125 51.796875 
Q 16.75 56 26.8125 56 
Q 31.78125 56 36.171875 55.265625 
Q 40.578125 54.546875 44.28125 53.078125 
z
" id="DejaVuSans-115"/>
      <path d="M 30.421875 75.984375 
L 30.421875 -13.1875 
L 9.71875 -13.1875 
L 9.71875 -6.203125 
L 21.390625 -6.203125 
L 21.390625 69 
L 9.71875 69 
L 9.71875 75.984375 
z
" id="DejaVuSans-93"/>
     </defs>
     <g transform="translate(230.89375 341.994687)scale(0.1 -0.1)">
      <use xlink:href="#DejaVuSans-87"/>
      <use x="98.845703" xlink:href="#DejaVuSans-105"/>
      <use x="126.628906" xlink:href="#DejaVuSans-110"/>
      <use x="190.007812" xlink:href="#DejaVuSans-100"/>
      <use x="253.484375" xlink:href="#DejaVuSans-32"/>
      <use x="285.271484" xlink:href="#DejaVuSans-83"/>
      <use x="348.748047" xlink:href="#DejaVuSans-112"/>
      <use x="412.224609" xlink:href="#DejaVuSans-101"/>
      <use x="473.748047" xlink:href="#DejaVuSans-101"/>
      <use x="535.271484" xlink:href="#DejaVuSans-100"/>
      <use x="598.748047" xlink:href="#DejaVuSans-32"/>
      <use x="630.535156" xlink:href="#DejaVuSans-91"/>
      <use x="669.548828" xlink:href="#DejaVuSans-109"/>
      <use x="766.960938" xlink:href="#DejaVuSans-47"/>
      <use x="800.652344" xlink:href="#DejaVuSans-115"/>
      <use x="852.751953" xlink:href="#DejaVuSans-93"/>
     </g>
    </g>
   </g>
   <g id="matplotlib.axis_2">
    <g id="ytick_1">
     <g id="line2d_11">
      <path clip-path="url(#pd090592e11)" d="M 61.985938 300.983255 
L 488.979687 300.983255 
" style="fill:none;stroke:#b0b0b0;stroke-linecap:square;stroke-opacity:0.5;stroke-width:0.8;"/>
     </g>
     <g id="line2d_12">
      <defs>
       <path d="M 0 0 
L -3.5 0 
" id="mb983d6cb0f" style="stroke:#000000;stroke-width:0.8;"/>
      </defs>
      <g>
       <use style="stroke:#000000;stroke-width:0.8;" x="61.985938" xlink:href="#mb983d6cb0f" y="300.983255"/>
      </g>
     </g>
     <g id="text_7">
      <!-- −5000 -->
      <defs>
       <path d="M 10.59375 35.5 
L 73.1875 35.5 
L 73.1875 27.203125 
L 10.59375 27.203125 
z
" id="DejaVuSans-8722"/>
      </defs>
      <g transform="translate(21.15625 304.782474)scale(0.1 -0.1)">
       <use xlink:href="#DejaVuSans-8722"/>
       <use x="83.789062" xlink:href="#DejaVuSans-53"/>
       <use x="147.412109" xlink:href="#DejaVuSans-48"/>
       <use x="211.035156" xlink:href="#DejaVuSans-48"/>
       <use x="274.658203" xlink:href="#DejaVuSans-48"/>
      </g>
     </g>
    </g>
    <g id="ytick_2">
     <g id="line2d_13">
      <path clip-path="url(#pd090592e11)" d="M 61.985938 244.77771 
L 488.979687 244.77771 
" style="fill:none;stroke:#b0b0b0;stroke-linecap:square;stroke-opacity:0.5;stroke-width:0.8;"/>
     </g>
     <g id="line2d_14">
      <g>
       <use style="stroke:#000000;stroke-width:0.8;" x="61.985938" xlink:href="#mb983d6cb0f" y="244.77771"/>
      </g>
     </g>
     <g id="text_8">
      <!-- 0 -->
      <g transform="translate(48.623438 248.576929)scale(0.1 -0.1)">
       <use xlink:href="#DejaVuSans-48"/>
      </g>
     </g>
    </g>
    <g id="ytick_3">
     <g id="line2d_15">
      <path clip-path="url(#pd090592e11)" d="M 61.985938 188.572166 
L 488.979687 188.572166 
" style="fill:none;stroke:#b0b0b0;stroke-linecap:square;stroke-opacity:0.5;stroke-width:0.8;"/>
     </g>
     <g id="line2d_16">
      <g>
       <use style="stroke:#000000;stroke-width:0.8;" x="61.985938" xlink:href="#mb983d6cb0f" y="188.572166"/>
      </g>
     </g>
     <g id="text_9">
      <!-- 5000 -->
      <g transform="translate(29.535938 192.371385)scale(0.1 -0.1)">
       <use xlink:href="#DejaVuSans-53"/>
       <use x="63.623047" xlink:href="#DejaVuSans-48"/>
       <use x="127.246094" xlink:href="#DejaVuSans-48"/>
       <use x="190.869141" xlink:href="#DejaVuSans-48"/>
      </g>
     </g>
    </g>
    <g id="ytick_4">
     <g id="line2d_17">
      <path clip-path="url(#pd090592e11)" d="M 61.985938 132.366621 
L 488.979687 132.366621 
" style="fill:none;stroke:#b0b0b0;stroke-linecap:square;stroke-opacity:0.5;stroke-width:0.8;"/>
     </g>
     <g id="line2d_18">
      <g>
       <use style="stroke:#000000;stroke-width:0.8;" x="61.985938" xlink:href="#mb983d6cb0f" y="132.366621"/>
      </g>
     </g>
     <g id="text_10">
      <!-- 10000 -->
      <g transform="translate(23.173438 136.16584)scale(0.1 -0.1)">
       <use xlink:href="#DejaVuSans-49"/>
       <use x="63.623047" xlink:href="#DejaVuSans-48"/>
       <use x="127.246094" xlink:href="#DejaVuSans-48"/>
       <use x="190.869141" xlink:href="#DejaVuSans-48"/>
       <use x="254.492188" xlink:href="#DejaVuSans-48"/>
      </g>
     </g>
    </g>
    <g id="ytick_5">
     <g id="line2d_19">
      <path clip-path="url(#pd090592e11)" d="M 61.985938 76.161077 
L 488.979687 76.161077 
" style="fill:none;stroke:#b0b0b0;stroke-linecap:square;stroke-opacity:0.5;stroke-width:0.8;"/>
     </g>
     <g id="line2d_20">
      <g>
       <use style="stroke:#000000;stroke-width:0.8;" x="61.985938" xlink:href="#mb983d6cb0f" y="76.161077"/>
      </g>
     </g>
     <g id="text_11">
      <!-- 15000 -->
      <g transform="translate(23.173438 79.960295)scale(0.1 -0.1)">
       <use xlink:href="#DejaVuSans-49"/>
       <use x="63.623047" xlink:href="#DejaVuSans-53"/>
       <use x="127.246094" xlink:href="#DejaVuSans-48"/>
       <use x="190.869141" xlink:href="#DejaVuSans-48"/>
       <use x="254.492188" xlink:href="#DejaVuSans-48"/>
      </g>
     </g>
    </g>
    <g id="text_12">
     <!-- TB_ForeAft -->
     <defs>
      <path d="M -0.296875 72.90625 
L 61.375 72.90625 
L 61.375 64.59375 
L 35.5 64.59375 
L 35.5 0 
L 25.59375 0 
L 25.59375 64.59375 
L -0.296875 64.59375 
z
" id="DejaVuSans-84"/>
      <path d="M 19.671875 34.8125 
L 19.671875 8.109375 
L 35.5 8.109375 
Q 43.453125 8.109375 47.28125 11.40625 
Q 51.125 14.703125 51.125 21.484375 
Q 51.125 28.328125 47.28125 31.5625 
Q 43.453125 34.8125 35.5 34.8125 
z
M 19.671875 64.796875 
L 19.671875 42.828125 
L 34.28125 42.828125 
Q 41.5 42.828125 45.03125 45.53125 
Q 48.578125 48.25 48.578125 53.8125 
Q 48.578125 59.328125 45.03125 62.0625 
Q 41.5 64.796875 34.28125 64.796875 
z
M 9.8125 72.90625 
L 35.015625 72.90625 
Q 46.296875 72.90625 52.390625 68.21875 
Q 58.5 63.53125 58.5 54.890625 
Q 58.5 48.1875 55.375 44.234375 
Q 52.25 40.28125 46.1875 39.3125 
Q 53.46875 37.75 57.5 32.78125 
Q 61.53125 27.828125 61.53125 20.40625 
Q 61.53125 10.640625 54.890625 5.3125 
Q 48.25 0 35.984375 0 
L 9.8125 0 
z
" id="DejaVuSans-66"/>
      <path d="M 50.984375 -16.609375 
L 50.984375 -23.578125 
L -0.984375 -23.578125 
L -0.984375 -16.609375 
z
" id="DejaVuSans-95"/>
      <path d="M 9.8125 72.90625 
L 51.703125 72.90625 
L 51.703125 64.59375 
L 19.671875 64.59375 
L 19.671875 43.109375 
L 48.578125 43.109375 
L 48.578125 34.8125 
L 19.671875 34.8125 
L 19.671875 0 
L 9.8125 0 
z
" id="DejaVuSans-70"/>
      <path d="M 30.609375 48.390625 
Q 23.390625 48.390625 19.1875 42.75 
Q 14.984375 37.109375 14.984375 27.296875 
Q 14.984375 17.484375 19.15625 11.84375 
Q 23.34375 6.203125 30.609375 6.203125 
Q 37.796875 6.203125 41.984375 11.859375 
Q 46.1875 17.53125 46.1875 27.296875 
Q 46.1875 37.015625 41.984375 42.703125 
Q 37.796875 48.390625 30.609375 48.390625 
z
M 30.609375 56 
Q 42.328125 56 49.015625 48.375 
Q 55.71875 40.765625 55.71875 27.296875 
Q 55.71875 13.875 49.015625 6.21875 
Q 42.328125 -1.421875 30.609375 -1.421875 
Q 18.84375 -1.421875 12.171875 6.21875 
Q 5.515625 13.875 5.515625 27.296875 
Q 5.515625 40.765625 12.171875 48.375 
Q 18.84375 56 30.609375 56 
z
" id="DejaVuSans-111"/>
      <path d="M 41.109375 46.296875 
Q 39.59375 47.171875 37.8125 47.578125 
Q 36.03125 48 33.890625 48 
Q 26.265625 48 22.1875 43.046875 
Q 18.109375 38.09375 18.109375 28.8125 
L 18.109375 0 
L 9.078125 0 
L 9.078125 54.6875 
L 18.109375 54.6875 
L 18.109375 46.1875 
Q 20.953125 51.171875 25.484375 53.578125 
Q 30.03125 56 36.53125 56 
Q 37.453125 56 38.578125 55.875 
Q 39.703125 55.765625 41.0625 55.515625 
z
" id="DejaVuSans-114"/>
      <path d="M 34.1875 63.1875 
L 20.796875 26.90625 
L 47.609375 26.90625 
z
M 28.609375 72.90625 
L 39.796875 72.90625 
L 67.578125 0 
L 57.328125 0 
L 50.6875 18.703125 
L 17.828125 18.703125 
L 11.1875 0 
L 0.78125 0 
z
" id="DejaVuSans-65"/>
      <path d="M 37.109375 75.984375 
L 37.109375 68.5 
L 28.515625 68.5 
Q 23.6875 68.5 21.796875 66.546875 
Q 19.921875 64.59375 19.921875 59.515625 
L 19.921875 54.6875 
L 34.71875 54.6875 
L 34.71875 47.703125 
L 19.921875 47.703125 
L 19.921875 0 
L 10.890625 0 
L 10.890625 47.703125 
L 2.296875 47.703125 
L 2.296875 54.6875 
L 10.890625 54.6875 
L 10.890625 58.5 
Q 10.890625 67.625 15.140625 71.796875 
Q 19.390625 75.984375 28.609375 75.984375 
z
" id="DejaVuSans-102"/>
      <path d="M 18.3125 70.21875 
L 18.3125 54.6875 
L 36.8125 54.6875 
L 36.8125 47.703125 
L 18.3125 47.703125 
L 18.3125 18.015625 
Q 18.3125 11.328125 20.140625 9.421875 
Q 21.96875 7.515625 27.59375 7.515625 
L 36.8125 7.515625 
L 36.8125 0 
L 27.59375 0 
Q 17.1875 0 13.234375 3.875 
Q 9.28125 7.765625 9.28125 18.015625 
L 9.28125 47.703125 
L 2.6875 47.703125 
L 2.6875 54.6875 
L 9.28125 54.6875 
L 9.28125 70.21875 
z
" id="DejaVuSans-116"/>
     </defs>
     <g transform="translate(14.798438 195.203281)rotate(-90)scale(0.1 -0.1)">
      <use xlink:href="#DejaVuSans-84"/>
      <use x="61.083984" xlink:href="#DejaVuSans-66"/>
      <use x="129.6875" xlink:href="#DejaVuSans-95"/>
      <use x="179.6875" xlink:href="#DejaVuSans-70"/>
      <use x="237.160156" xlink:href="#DejaVuSans-111"/>
      <use x="298.341797" xlink:href="#DejaVuSans-114"/>
      <use x="339.423828" xlink:href="#DejaVuSans-101"/>
      <use x="400.947266" xlink:href="#DejaVuSans-65"/>
      <use x="469.308594" xlink:href="#DejaVuSans-102"/>
      <use x="504.498047" xlink:href="#DejaVuSans-116"/>
     </g>
    </g>
   </g>
   <g id="LineCollection_1">
    <path clip-path="url(#pd090592e11)" d="M 81.394744 206.939944 
L 81.394744 183.842445 
" style="fill:none;stroke:#1f77b4;stroke-width:1.5;"/>
    <path clip-path="url(#pd090592e11)" d="M 99.879322 207.083181 
L 99.879322 143.189536 
" style="fill:none;stroke:#1f77b4;stroke-width:1.5;"/>
    <path clip-path="url(#pd090592e11)" d="M 118.3639 164.301143 
L 118.3639 91.096102 
" style="fill:none;stroke:#1f77b4;stroke-width:1.5;"/>
    <path clip-path="url(#pd090592e11)" d="M 136.848478 128.329153 
L 136.848478 75.53924 
" style="fill:none;stroke:#1f77b4;stroke-width:1.5;"/>
    <path clip-path="url(#pd090592e11)" d="M 155.333056 97.52619 
L 155.333056 59.26182 
" style="fill:none;stroke:#1f77b4;stroke-width:1.5;"/>
    <path clip-path="url(#pd090592e11)" d="M 173.817634 84.338052 
L 173.817634 51.993068 
" style="fill:none;stroke:#1f77b4;stroke-width:1.5;"/>
    <path clip-path="url(#pd090592e11)" d="M 192.302212 67.852997 
L 192.302212 46.759176 
" style="fill:none;stroke:#1f77b4;stroke-width:1.5;"/>
    <path clip-path="url(#pd090592e11)" d="M 210.78679 64.014857 
L 210.78679 42.711324 
" style="fill:none;stroke:#1f77b4;stroke-width:1.5;"/>
    <path clip-path="url(#pd090592e11)" d="M 229.271368 59.441304 
L 229.271368 40.810247 
" style="fill:none;stroke:#1f77b4;stroke-width:1.5;"/>
    <path clip-path="url(#pd090592e11)" d="M 247.755946 57.430366 
L 247.755946 40.817639 
" style="fill:none;stroke:#1f77b4;stroke-width:1.5;"/>
    <path clip-path="url(#pd090592e11)" d="M 266.240524 57.902854 
L 266.240524 46.901083 
" style="fill:none;stroke:#1f77b4;stroke-width:1.5;"/>
    <path clip-path="url(#pd090592e11)" d="M 284.725101 52.847031 
L 284.725101 40.69633 
" style="fill:none;stroke:#1f77b4;stroke-width:1.5;"/>
    <path clip-path="url(#pd090592e11)" d="M 303.209679 61.810871 
L 303.209679 40.330827 
" style="fill:none;stroke:#1f77b4;stroke-width:1.5;"/>
    <path clip-path="url(#pd090592e11)" d="M 321.694257 75.044457 
L 321.694257 35.56358 
" style="fill:none;stroke:#1f77b4;stroke-width:1.5;"/>
    <path clip-path="url(#pd090592e11)" d="M 340.178835 87.939134 
L 340.178835 49.74319 
" style="fill:none;stroke:#1f77b4;stroke-width:1.5;"/>
    <path clip-path="url(#pd090592e11)" d="M 358.663413 72.944963 
L 358.663413 55.528 
" style="fill:none;stroke:#1f77b4;stroke-width:1.5;"/>
   </g>
   <g id="LineCollection_2">
    <path clip-path="url(#pd090592e11)" d="M 81.394744 238.978693 
L 81.394744 228.215045 
" style="fill:none;stroke:#ff7f0e;stroke-width:1.5;"/>
    <path clip-path="url(#pd090592e11)" d="M 99.879322 230.997056 
L 99.879322 208.295481 
" style="fill:none;stroke:#ff7f0e;stroke-width:1.5;"/>
    <path clip-path="url(#pd090592e11)" d="M 118.3639 217.488647 
L 118.3639 186.12528 
" style="fill:none;stroke:#ff7f0e;stroke-width:1.5;"/>
    <path clip-path="url(#pd090592e11)" d="M 136.848478 193.044041 
L 136.848478 158.865685 
" style="fill:none;stroke:#ff7f0e;stroke-width:1.5;"/>
    <path clip-path="url(#pd090592e11)" d="M 155.333056 183.427656 
L 155.333056 136.344326 
" style="fill:none;stroke:#ff7f0e;stroke-width:1.5;"/>
    <path clip-path="url(#pd090592e11)" d="M 173.817634 151.780541 
L 173.817634 114.334826 
" style="fill:none;stroke:#ff7f0e;stroke-width:1.5;"/>
    <path clip-path="url(#pd090592e11)" d="M 192.302212 136.410358 
L 192.302212 95.09493 
" style="fill:none;stroke:#ff7f0e;stroke-width:1.5;"/>
    <path clip-path="url(#pd090592e11)" d="M 210.78679 122.602439 
L 210.78679 97.119093 
" style="fill:none;stroke:#ff7f0e;stroke-width:1.5;"/>
    <path clip-path="url(#pd090592e11)" d="M 229.271368 116.048683 
L 229.271368 98.372869 
" style="fill:none;stroke:#ff7f0e;stroke-width:1.5;"/>
    <path clip-path="url(#pd090592e11)" d="M 247.755946 121.704467 
L 247.755946 105.957643 
" style="fill:none;stroke:#ff7f0e;stroke-width:1.5;"/>
    <path clip-path="url(#pd090592e11)" d="M 266.240524 131.303499 
L 266.240524 116.940643 
" style="fill:none;stroke:#ff7f0e;stroke-width:1.5;"/>
    <path clip-path="url(#pd090592e11)" d="M 284.725101 146.949382 
L 284.725101 120.103408 
" style="fill:none;stroke:#ff7f0e;stroke-width:1.5;"/>
    <path clip-path="url(#pd090592e11)" d="M 303.209679 143.509528 
L 303.209679 138.425815 
" style="fill:none;stroke:#ff7f0e;stroke-width:1.5;"/>
    <path clip-path="url(#pd090592e11)" d="M 321.694257 144.524841 
L 321.694257 143.068724 
" style="fill:none;stroke:#ff7f0e;stroke-width:1.5;"/>
    <path clip-path="url(#pd090592e11)" d="M 340.178835 152.394914 
L 340.178835 144.640484 
" style="fill:none;stroke:#ff7f0e;stroke-width:1.5;"/>
    <path clip-path="url(#pd090592e11)" d="M 358.663413 153.358256 
L 358.663413 151.694869 
" style="fill:none;stroke:#ff7f0e;stroke-width:1.5;"/>
   </g>
   <g id="LineCollection_3">
    <path clip-path="url(#pd090592e11)" d="M 81.394744 286.43837 
L 81.394744 258.151373 
" style="fill:none;stroke:#2ca02c;stroke-width:1.5;"/>
    <path clip-path="url(#pd090592e11)" d="M 99.879322 268.629574 
L 99.879322 226.064461 
" style="fill:none;stroke:#2ca02c;stroke-width:1.5;"/>
    <path clip-path="url(#pd090592e11)" d="M 118.3639 267.780752 
L 118.3639 217.310052 
" style="fill:none;stroke:#2ca02c;stroke-width:1.5;"/>
    <path clip-path="url(#pd090592e11)" d="M 136.848478 252.183091 
L 136.848478 200.051694 
" style="fill:none;stroke:#2ca02c;stroke-width:1.5;"/>
    <path clip-path="url(#pd090592e11)" d="M 155.333056 257.406096 
L 155.333056 195.473367 
" style="fill:none;stroke:#2ca02c;stroke-width:1.5;"/>
    <path clip-path="url(#pd090592e11)" d="M 173.817634 230.438812 
L 173.817634 176.164937 
" style="fill:none;stroke:#2ca02c;stroke-width:1.5;"/>
    <path clip-path="url(#pd090592e11)" d="M 192.302212 252.729905 
L 192.302212 132.950217 
" style="fill:none;stroke:#2ca02c;stroke-width:1.5;"/>
    <path clip-path="url(#pd090592e11)" d="M 210.78679 219.58966 
L 210.78679 142.092366 
" style="fill:none;stroke:#2ca02c;stroke-width:1.5;"/>
    <path clip-path="url(#pd090592e11)" d="M 229.271368 242.000587 
L 229.271368 138.404077 
" style="fill:none;stroke:#2ca02c;stroke-width:1.5;"/>
    <path clip-path="url(#pd090592e11)" d="M 247.755946 221.310438 
L 247.755946 168.216749 
" style="fill:none;stroke:#2ca02c;stroke-width:1.5;"/>
    <path clip-path="url(#pd090592e11)" d="M 266.240524 247.100809 
L 266.240524 170.969178 
" style="fill:none;stroke:#2ca02c;stroke-width:1.5;"/>
    <path clip-path="url(#pd090592e11)" d="M 284.725101 248.749598 
L 284.725101 190.215692 
" style="fill:none;stroke:#2ca02c;stroke-width:1.5;"/>
    <path clip-path="url(#pd090592e11)" d="M 303.209679 248.464957 
L 303.209679 174.654009 
" style="fill:none;stroke:#2ca02c;stroke-width:1.5;"/>
    <path clip-path="url(#pd090592e11)" d="M 321.694257 224.549567 
L 321.694257 207.988949 
" style="fill:none;stroke:#2ca02c;stroke-width:1.5;"/>
    <path clip-path="url(#pd090592e11)" d="M 340.178835 259.59382 
L 340.178835 209.668448 
" style="fill:none;stroke:#2ca02c;stroke-width:1.5;"/>
    <path clip-path="url(#pd090592e11)" d="M 358.663413 264.646032 
L 358.663413 237.104871 
" style="fill:none;stroke:#2ca02c;stroke-width:1.5;"/>
   </g>
   <g id="line2d_21">
    <defs>
     <path d="M 4 0 
L -4 -0 
" id="m226f25eb0c" style="stroke:#1f77b4;"/>
    </defs>
    <g clip-path="url(#pd090592e11)">
     <use style="fill:#1f77b4;stroke:#1f77b4;" x="81.394744" xlink:href="#m226f25eb0c" y="206.939944"/>
     <use style="fill:#1f77b4;stroke:#1f77b4;" x="99.879322" xlink:href="#m226f25eb0c" y="207.083181"/>
     <use style="fill:#1f77b4;stroke:#1f77b4;" x="118.3639" xlink:href="#m226f25eb0c" y="164.301143"/>
     <use style="fill:#1f77b4;stroke:#1f77b4;" x="136.848478" xlink:href="#m226f25eb0c" y="128.329153"/>
     <use style="fill:#1f77b4;stroke:#1f77b4;" x="155.333056" xlink:href="#m226f25eb0c" y="97.52619"/>
     <use style="fill:#1f77b4;stroke:#1f77b4;" x="173.817634" xlink:href="#m226f25eb0c" y="84.338052"/>
     <use style="fill:#1f77b4;stroke:#1f77b4;" x="192.302212" xlink:href="#m226f25eb0c" y="67.852997"/>
     <use style="fill:#1f77b4;stroke:#1f77b4;" x="210.78679" xlink:href="#m226f25eb0c" y="64.014857"/>
     <use style="fill:#1f77b4;stroke:#1f77b4;" x="229.271368" xlink:href="#m226f25eb0c" y="59.441304"/>
     <use style="fill:#1f77b4;stroke:#1f77b4;" x="247.755946" xlink:href="#m226f25eb0c" y="57.430366"/>
     <use style="fill:#1f77b4;stroke:#1f77b4;" x="266.240524" xlink:href="#m226f25eb0c" y="57.902854"/>
     <use style="fill:#1f77b4;stroke:#1f77b4;" x="284.725101" xlink:href="#m226f25eb0c" y="52.847031"/>
     <use style="fill:#1f77b4;stroke:#1f77b4;" x="303.209679" xlink:href="#m226f25eb0c" y="61.810871"/>
     <use style="fill:#1f77b4;stroke:#1f77b4;" x="321.694257" xlink:href="#m226f25eb0c" y="75.044457"/>
     <use style="fill:#1f77b4;stroke:#1f77b4;" x="340.178835" xlink:href="#m226f25eb0c" y="87.939134"/>
     <use style="fill:#1f77b4;stroke:#1f77b4;" x="358.663413" xlink:href="#m226f25eb0c" y="72.944963"/>
    </g>
   </g>
   <g id="line2d_22">
    <g clip-path="url(#pd090592e11)">
     <use style="fill:#1f77b4;stroke:#1f77b4;" x="81.394744" xlink:href="#m226f25eb0c" y="183.842445"/>
     <use style="fill:#1f77b4;stroke:#1f77b4;" x="99.879322" xlink:href="#m226f25eb0c" y="143.189536"/>
     <use style="fill:#1f77b4;stroke:#1f77b4;" x="118.3639" xlink:href="#m226f25eb0c" y="91.096102"/>
     <use style="fill:#1f77b4;stroke:#1f77b4;" x="136.848478" xlink:href="#m226f25eb0c" y="75.53924"/>
     <use style="fill:#1f77b4;stroke:#1f77b4;" x="155.333056" xlink:href="#m226f25eb0c" y="59.26182"/>
     <use style="fill:#1f77b4;stroke:#1f77b4;" x="173.817634" xlink:href="#m226f25eb0c" y="51.993068"/>
     <use style="fill:#1f77b4;stroke:#1f77b4;" x="192.302212" xlink:href="#m226f25eb0c" y="46.759176"/>
     <use style="fill:#1f77b4;stroke:#1f77b4;" x="210.78679" xlink:href="#m226f25eb0c" y="42.711324"/>
     <use style="fill:#1f77b4;stroke:#1f77b4;" x="229.271368" xlink:href="#m226f25eb0c" y="40.810247"/>
     <use style="fill:#1f77b4;stroke:#1f77b4;" x="247.755946" xlink:href="#m226f25eb0c" y="40.817639"/>
     <use style="fill:#1f77b4;stroke:#1f77b4;" x="266.240524" xlink:href="#m226f25eb0c" y="46.901083"/>
     <use style="fill:#1f77b4;stroke:#1f77b4;" x="284.725101" xlink:href="#m226f25eb0c" y="40.69633"/>
     <use style="fill:#1f77b4;stroke:#1f77b4;" x="303.209679" xlink:href="#m226f25eb0c" y="40.330827"/>
     <use style="fill:#1f77b4;stroke:#1f77b4;" x="321.694257" xlink:href="#m226f25eb0c" y="35.56358"/>
     <use style="fill:#1f77b4;stroke:#1f77b4;" x="340.178835" xlink:href="#m226f25eb0c" y="49.74319"/>
     <use style="fill:#1f77b4;stroke:#1f77b4;" x="358.663413" xlink:href="#m226f25eb0c" y="55.528"/>
    </g>
   </g>
   <g id="line2d_23">
    <defs>
     <path d="M 4 0 
L -4 -0 
" id="m75d2d83b6d" style="stroke:#ff7f0e;"/>
    </defs>
    <g clip-path="url(#pd090592e11)">
     <use style="fill:#ff7f0e;stroke:#ff7f0e;" x="81.394744" xlink:href="#m75d2d83b6d" y="238.978693"/>
     <use style="fill:#ff7f0e;stroke:#ff7f0e;" x="99.879322" xlink:href="#m75d2d83b6d" y="230.997056"/>
     <use style="fill:#ff7f0e;stroke:#ff7f0e;" x="118.3639" xlink:href="#m75d2d83b6d" y="217.488647"/>
     <use style="fill:#ff7f0e;stroke:#ff7f0e;" x="136.848478" xlink:href="#m75d2d83b6d" y="193.044041"/>
     <use style="fill:#ff7f0e;stroke:#ff7f0e;" x="155.333056" xlink:href="#m75d2d83b6d" y="183.427656"/>
     <use style="fill:#ff7f0e;stroke:#ff7f0e;" x="173.817634" xlink:href="#m75d2d83b6d" y="151.780541"/>
     <use style="fill:#ff7f0e;stroke:#ff7f0e;" x="192.302212" xlink:href="#m75d2d83b6d" y="136.410358"/>
     <use style="fill:#ff7f0e;stroke:#ff7f0e;" x="210.78679" xlink:href="#m75d2d83b6d" y="122.602439"/>
     <use style="fill:#ff7f0e;stroke:#ff7f0e;" x="229.271368" xlink:href="#m75d2d83b6d" y="116.048683"/>
     <use style="fill:#ff7f0e;stroke:#ff7f0e;" x="247.755946" xlink:href="#m75d2d83b6d" y="121.704467"/>
     <use style="fill:#ff7f0e;stroke:#ff7f0e;" x="266.240524" xlink:href="#m75d2d83b6d" y="131.303499"/>
     <use style="fill:#ff7f0e;stroke:#ff7f0e;" x="284.725101" xlink:href="#m75d2d83b6d" y="146.949382"/>
     <use style="fill:#ff7f0e;stroke:#ff7f0e;" x="303.209679" xlink:href="#m75d2d83b6d" y="143.509528"/>
     <use style="fill:#ff7f0e;stroke:#ff7f0e;" x="321.694257" xlink:href="#m75d2d83b6d" y="144.524841"/>
     <use style="fill:#ff7f0e;stroke:#ff7f0e;" x="340.178835" xlink:href="#m75d2d83b6d" y="152.394914"/>
     <use style="fill:#ff7f0e;stroke:#ff7f0e;" x="358.663413" xlink:href="#m75d2d83b6d" y="153.358256"/>
    </g>
   </g>
   <g id="line2d_24">
    <g clip-path="url(#pd090592e11)">
     <use style="fill:#ff7f0e;stroke:#ff7f0e;" x="81.394744" xlink:href="#m75d2d83b6d" y="228.215045"/>
     <use style="fill:#ff7f0e;stroke:#ff7f0e;" x="99.879322" xlink:href="#m75d2d83b6d" y="208.295481"/>
     <use style="fill:#ff7f0e;stroke:#ff7f0e;" x="118.3639" xlink:href="#m75d2d83b6d" y="186.12528"/>
     <use style="fill:#ff7f0e;stroke:#ff7f0e;" x="136.848478" xlink:href="#m75d2d83b6d" y="158.865685"/>
     <use style="fill:#ff7f0e;stroke:#ff7f0e;" x="155.333056" xlink:href="#m75d2d83b6d" y="136.344326"/>
     <use style="fill:#ff7f0e;stroke:#ff7f0e;" x="173.817634" xlink:href="#m75d2d83b6d" y="114.334826"/>
     <use style="fill:#ff7f0e;stroke:#ff7f0e;" x="192.302212" xlink:href="#m75d2d83b6d" y="95.09493"/>
     <use style="fill:#ff7f0e;stroke:#ff7f0e;" x="210.78679" xlink:href="#m75d2d83b6d" y="97.119093"/>
     <use style="fill:#ff7f0e;stroke:#ff7f0e;" x="229.271368" xlink:href="#m75d2d83b6d" y="98.372869"/>
     <use style="fill:#ff7f0e;stroke:#ff7f0e;" x="247.755946" xlink:href="#m75d2d83b6d" y="105.957643"/>
     <use style="fill:#ff7f0e;stroke:#ff7f0e;" x="266.240524" xlink:href="#m75d2d83b6d" y="116.940643"/>
     <use style="fill:#ff7f0e;stroke:#ff7f0e;" x="284.725101" xlink:href="#m75d2d83b6d" y="120.103408"/>
     <use style="fill:#ff7f0e;stroke:#ff7f0e;" x="303.209679" xlink:href="#m75d2d83b6d" y="138.425815"/>
     <use style="fill:#ff7f0e;stroke:#ff7f0e;" x="321.694257" xlink:href="#m75d2d83b6d" y="143.068724"/>
     <use style="fill:#ff7f0e;stroke:#ff7f0e;" x="340.178835" xlink:href="#m75d2d83b6d" y="144.640484"/>
     <use style="fill:#ff7f0e;stroke:#ff7f0e;" x="358.663413" xlink:href="#m75d2d83b6d" y="151.694869"/>
    </g>
   </g>
   <g id="line2d_25">
    <defs>
     <path d="M 4 0 
L -4 -0 
" id="m82f800b513" style="stroke:#2ca02c;"/>
    </defs>
    <g clip-path="url(#pd090592e11)">
     <use style="fill:#2ca02c;stroke:#2ca02c;" x="81.394744" xlink:href="#m82f800b513" y="286.43837"/>
     <use style="fill:#2ca02c;stroke:#2ca02c;" x="99.879322" xlink:href="#m82f800b513" y="268.629574"/>
     <use style="fill:#2ca02c;stroke:#2ca02c;" x="118.3639" xlink:href="#m82f800b513" y="267.780752"/>
     <use style="fill:#2ca02c;stroke:#2ca02c;" x="136.848478" xlink:href="#m82f800b513" y="252.183091"/>
     <use style="fill:#2ca02c;stroke:#2ca02c;" x="155.333056" xlink:href="#m82f800b513" y="257.406096"/>
     <use style="fill:#2ca02c;stroke:#2ca02c;" x="173.817634" xlink:href="#m82f800b513" y="230.438812"/>
     <use style="fill:#2ca02c;stroke:#2ca02c;" x="192.302212" xlink:href="#m82f800b513" y="252.729905"/>
     <use style="fill:#2ca02c;stroke:#2ca02c;" x="210.78679" xlink:href="#m82f800b513" y="219.58966"/>
     <use style="fill:#2ca02c;stroke:#2ca02c;" x="229.271368" xlink:href="#m82f800b513" y="242.000587"/>
     <use style="fill:#2ca02c;stroke:#2ca02c;" x="247.755946" xlink:href="#m82f800b513" y="221.310438"/>
     <use style="fill:#2ca02c;stroke:#2ca02c;" x="266.240524" xlink:href="#m82f800b513" y="247.100809"/>
     <use style="fill:#2ca02c;stroke:#2ca02c;" x="284.725101" xlink:href="#m82f800b513" y="248.749598"/>
     <use style="fill:#2ca02c;stroke:#2ca02c;" x="303.209679" xlink:href="#m82f800b513" y="248.464957"/>
     <use style="fill:#2ca02c;stroke:#2ca02c;" x="321.694257" xlink:href="#m82f800b513" y="224.549567"/>
     <use style="fill:#2ca02c;stroke:#2ca02c;" x="340.178835" xlink:href="#m82f800b513" y="259.59382"/>
     <use style="fill:#2ca02c;stroke:#2ca02c;" x="358.663413" xlink:href="#m82f800b513" y="264.646032"/>
    </g>
   </g>
   <g id="line2d_26">
    <g clip-path="url(#pd090592e11)">
     <use style="fill:#2ca02c;stroke:#2ca02c;" x="81.394744" xlink:href="#m82f800b513" y="258.151373"/>
     <use style="fill:#2ca02c;stroke:#2ca02c;" x="99.879322" xlink:href="#m82f800b513" y="226.064461"/>
     <use style="fill:#2ca02c;stroke:#2ca02c;" x="118.3639" xlink:href="#m82f800b513" y="217.310052"/>
     <use style="fill:#2ca02c;stroke:#2ca02c;" x="136.848478" xlink:href="#m82f800b513" y="200.051694"/>
     <use style="fill:#2ca02c;stroke:#2ca02c;" x="155.333056" xlink:href="#m82f800b513" y="195.473367"/>
     <use style="fill:#2ca02c;stroke:#2ca02c;" x="173.817634" xlink:href="#m82f800b513" y="176.164937"/>
     <use style="fill:#2ca02c;stroke:#2ca02c;" x="192.302212" xlink:href="#m82f800b513" y="132.950217"/>
     <use style="fill:#2ca02c;stroke:#2ca02c;" x="210.78679" xlink:href="#m82f800b513" y="142.092366"/>
     <use style="fill:#2ca02c;stroke:#2ca02c;" x="229.271368" xlink:href="#m82f800b513" y="138.404077"/>
     <use style="fill:#2ca02c;stroke:#2ca02c;" x="247.755946" xlink:href="#m82f800b513" y="168.216749"/>
     <use style="fill:#2ca02c;stroke:#2ca02c;" x="266.240524" xlink:href="#m82f800b513" y="170.969178"/>
     <use style="fill:#2ca02c;stroke:#2ca02c;" x="284.725101" xlink:href="#m82f800b513" y="190.215692"/>
     <use style="fill:#2ca02c;stroke:#2ca02c;" x="303.209679" xlink:href="#m82f800b513" y="174.654009"/>
     <use style="fill:#2ca02c;stroke:#2ca02c;" x="321.694257" xlink:href="#m82f800b513" y="207.988949"/>
     <use style="fill:#2ca02c;stroke:#2ca02c;" x="340.178835" xlink:href="#m82f800b513" y="209.668448"/>
     <use style="fill:#2ca02c;stroke:#2ca02c;" x="358.663413" xlink:href="#m82f800b513" y="237.104871"/>
    </g>
   </g>
   <g id="line2d_27">
    <path clip-path="url(#pd090592e11)" d="M 81.394744 195.391194 
L 99.879322 175.136358 
L 118.3639 127.698623 
L 136.848478 101.934196 
L 155.333056 78.394005 
L 173.817634 68.16556 
L 192.302212 57.306086 
L 210.78679 53.363091 
L 229.271368 50.125776 
L 247.755946 49.124002 
L 266.240524 52.401969 
L 284.725101 46.77168 
L 303.209679 51.070849 
L 321.694257 55.304018 
L 340.178835 68.841162 
L 358.663413 64.236482 
L 377.147991 77.893887 
M 432.601725 56.942264 
M 469.570881 79.992296 
" style="fill:none;stroke:#1f77b4;stroke-linecap:square;stroke-width:1.5;"/>
    <defs>
     <path d="M 0 -3 
L -3 3 
L 3 3 
z
" id="m08449abdde" style="stroke:#1f77b4;stroke-linejoin:miter;"/>
    </defs>
    <g clip-path="url(#pd090592e11)">
     <use style="fill-opacity:0;stroke:#1f77b4;stroke-linejoin:miter;" x="81.394744" xlink:href="#m08449abdde" y="195.391194"/>
     <use style="fill-opacity:0;stroke:#1f77b4;stroke-linejoin:miter;" x="99.879322" xlink:href="#m08449abdde" y="175.136358"/>
     <use style="fill-opacity:0;stroke:#1f77b4;stroke-linejoin:miter;" x="118.3639" xlink:href="#m08449abdde" y="127.698623"/>
     <use style="fill-opacity:0;stroke:#1f77b4;stroke-linejoin:miter;" x="136.848478" xlink:href="#m08449abdde" y="101.934196"/>
     <use style="fill-opacity:0;stroke:#1f77b4;stroke-linejoin:miter;" x="155.333056" xlink:href="#m08449abdde" y="78.394005"/>
     <use style="fill-opacity:0;stroke:#1f77b4;stroke-linejoin:miter;" x="173.817634" xlink:href="#m08449abdde" y="68.16556"/>
     <use style="fill-opacity:0;stroke:#1f77b4;stroke-linejoin:miter;" x="192.302212" xlink:href="#m08449abdde" y="57.306086"/>
     <use style="fill-opacity:0;stroke:#1f77b4;stroke-linejoin:miter;" x="210.78679" xlink:href="#m08449abdde" y="53.363091"/>
     <use style="fill-opacity:0;stroke:#1f77b4;stroke-linejoin:miter;" x="229.271368" xlink:href="#m08449abdde" y="50.125776"/>
     <use style="fill-opacity:0;stroke:#1f77b4;stroke-linejoin:miter;" x="247.755946" xlink:href="#m08449abdde" y="49.124002"/>
     <use style="fill-opacity:0;stroke:#1f77b4;stroke-linejoin:miter;" x="266.240524" xlink:href="#m08449abdde" y="52.401969"/>
     <use style="fill-opacity:0;stroke:#1f77b4;stroke-linejoin:miter;" x="284.725101" xlink:href="#m08449abdde" y="46.77168"/>
     <use style="fill-opacity:0;stroke:#1f77b4;stroke-linejoin:miter;" x="303.209679" xlink:href="#m08449abdde" y="51.070849"/>
     <use style="fill-opacity:0;stroke:#1f77b4;stroke-linejoin:miter;" x="321.694257" xlink:href="#m08449abdde" y="55.304018"/>
     <use style="fill-opacity:0;stroke:#1f77b4;stroke-linejoin:miter;" x="340.178835" xlink:href="#m08449abdde" y="68.841162"/>
     <use style="fill-opacity:0;stroke:#1f77b4;stroke-linejoin:miter;" x="358.663413" xlink:href="#m08449abdde" y="64.236482"/>
     <use style="fill-opacity:0;stroke:#1f77b4;stroke-linejoin:miter;" x="377.147991" xlink:href="#m08449abdde" y="77.893887"/>
     <use style="fill-opacity:0;stroke:#1f77b4;stroke-linejoin:miter;" x="432.601725" xlink:href="#m08449abdde" y="56.942264"/>
     <use style="fill-opacity:0;stroke:#1f77b4;stroke-linejoin:miter;" x="469.570881" xlink:href="#m08449abdde" y="79.992296"/>
    </g>
   </g>
   <g id="line2d_28">
    <path clip-path="url(#pd090592e11)" d="M 81.394744 233.596869 
L 99.879322 219.646269 
L 118.3639 201.806964 
L 136.848478 175.954863 
L 155.333056 159.885991 
L 173.817634 133.057684 
L 192.302212 115.752644 
L 210.78679 109.860766 
L 229.271368 107.210776 
L 247.755946 113.831055 
L 266.240524 124.122071 
L 284.725101 133.526395 
L 303.209679 140.967672 
L 321.694257 143.796782 
L 340.178835 148.517699 
L 358.663413 152.526563 
L 377.147991 157.009459 
M 432.601725 159.721859 
M 469.570881 206.340354 
" style="fill:none;stroke:#ff7f0e;stroke-linecap:square;stroke-width:1.5;"/>
    <defs>
     <path d="M 0 3 
C 0.795609 3 1.55874 2.683901 2.12132 2.12132 
C 2.683901 1.55874 3 0.795609 3 0 
C 3 -0.795609 2.683901 -1.55874 2.12132 -2.12132 
C 1.55874 -2.683901 0.795609 -3 0 -3 
C -0.795609 -3 -1.55874 -2.683901 -2.12132 -2.12132 
C -2.683901 -1.55874 -3 -0.795609 -3 0 
C -3 0.795609 -2.683901 1.55874 -2.12132 2.12132 
C -1.55874 2.683901 -0.795609 3 0 3 
z
" id="m45797baab6" style="stroke:#ff7f0e;"/>
    </defs>
    <g clip-path="url(#pd090592e11)">
     <use style="fill-opacity:0;stroke:#ff7f0e;" x="81.394744" xlink:href="#m45797baab6" y="233.596869"/>
     <use style="fill-opacity:0;stroke:#ff7f0e;" x="99.879322" xlink:href="#m45797baab6" y="219.646269"/>
     <use style="fill-opacity:0;stroke:#ff7f0e;" x="118.3639" xlink:href="#m45797baab6" y="201.806964"/>
     <use style="fill-opacity:0;stroke:#ff7f0e;" x="136.848478" xlink:href="#m45797baab6" y="175.954863"/>
     <use style="fill-opacity:0;stroke:#ff7f0e;" x="155.333056" xlink:href="#m45797baab6" y="159.885991"/>
     <use style="fill-opacity:0;stroke:#ff7f0e;" x="173.817634" xlink:href="#m45797baab6" y="133.057684"/>
     <use style="fill-opacity:0;stroke:#ff7f0e;" x="192.302212" xlink:href="#m45797baab6" y="115.752644"/>
     <use style="fill-opacity:0;stroke:#ff7f0e;" x="210.78679" xlink:href="#m45797baab6" y="109.860766"/>
     <use style="fill-opacity:0;stroke:#ff7f0e;" x="229.271368" xlink:href="#m45797baab6" y="107.210776"/>
     <use style="fill-opacity:0;stroke:#ff7f0e;" x="247.755946" xlink:href="#m45797baab6" y="113.831055"/>
     <use style="fill-opacity:0;stroke:#ff7f0e;" x="266.240524" xlink:href="#m45797baab6" y="124.122071"/>
     <use style="fill-opacity:0;stroke:#ff7f0e;" x="284.725101" xlink:href="#m45797baab6" y="133.526395"/>
     <use style="fill-opacity:0;stroke:#ff7f0e;" x="303.209679" xlink:href="#m45797baab6" y="140.967672"/>
     <use style="fill-opacity:0;stroke:#ff7f0e;" x="321.694257" xlink:href="#m45797baab6" y="143.796782"/>
     <use style="fill-opacity:0;stroke:#ff7f0e;" x="340.178835" xlink:href="#m45797baab6" y="148.517699"/>
     <use style="fill-opacity:0;stroke:#ff7f0e;" x="358.663413" xlink:href="#m45797baab6" y="152.526563"/>
     <use style="fill-opacity:0;stroke:#ff7f0e;" x="377.147991" xlink:href="#m45797baab6" y="157.009459"/>
     <use style="fill-opacity:0;stroke:#ff7f0e;" x="432.601725" xlink:href="#m45797baab6" y="159.721859"/>
     <use style="fill-opacity:0;stroke:#ff7f0e;" x="469.570881" xlink:href="#m45797baab6" y="206.340354"/>
    </g>
   </g>
   <g id="line2d_29">
    <path clip-path="url(#pd090592e11)" d="M 81.394744 272.294872 
L 99.879322 247.347017 
L 118.3639 242.545402 
L 136.848478 226.117392 
L 155.333056 226.439732 
L 173.817634 203.301874 
L 192.302212 192.840061 
L 210.78679 180.841013 
L 229.271368 190.202332 
L 247.755946 194.763594 
L 266.240524 209.034994 
L 284.725101 219.482645 
L 303.209679 211.559483 
L 321.694257 216.269258 
L 340.178835 234.631134 
L 358.663413 250.875451 
L 377.147991 241.535896 
M 432.601725 279.744623 
M 469.570881 300.47267 
" style="fill:none;stroke:#2ca02c;stroke-linecap:square;stroke-width:1.5;"/>
    <defs>
     <path d="M -0 3 
L 3 -3 
L -3 -3 
z
" id="mbcda9dfb15" style="stroke:#2ca02c;stroke-linejoin:miter;"/>
    </defs>
    <g clip-path="url(#pd090592e11)">
     <use style="fill-opacity:0;stroke:#2ca02c;stroke-linejoin:miter;" x="81.394744" xlink:href="#mbcda9dfb15" y="272.294872"/>
     <use style="fill-opacity:0;stroke:#2ca02c;stroke-linejoin:miter;" x="99.879322" xlink:href="#mbcda9dfb15" y="247.347017"/>
     <use style="fill-opacity:0;stroke:#2ca02c;stroke-linejoin:miter;" x="118.3639" xlink:href="#mbcda9dfb15" y="242.545402"/>
     <use style="fill-opacity:0;stroke:#2ca02c;stroke-linejoin:miter;" x="136.848478" xlink:href="#mbcda9dfb15" y="226.117392"/>
     <use style="fill-opacity:0;stroke:#2ca02c;stroke-linejoin:miter;" x="155.333056" xlink:href="#mbcda9dfb15" y="226.439732"/>
     <use style="fill-opacity:0;stroke:#2ca02c;stroke-linejoin:miter;" x="173.817634" xlink:href="#mbcda9dfb15" y="203.301874"/>
     <use style="fill-opacity:0;stroke:#2ca02c;stroke-linejoin:miter;" x="192.302212" xlink:href="#mbcda9dfb15" y="192.840061"/>
     <use style="fill-opacity:0;stroke:#2ca02c;stroke-linejoin:miter;" x="210.78679" xlink:href="#mbcda9dfb15" y="180.841013"/>
     <use style="fill-opacity:0;stroke:#2ca02c;stroke-linejoin:miter;" x="229.271368" xlink:href="#mbcda9dfb15" y="190.202332"/>
     <use style="fill-opacity:0;stroke:#2ca02c;stroke-linejoin:miter;" x="247.755946" xlink:href="#mbcda9dfb15" y="194.763594"/>
     <use style="fill-opacity:0;stroke:#2ca02c;stroke-linejoin:miter;" x="266.240524" xlink:href="#mbcda9dfb15" y="209.034994"/>
     <use style="fill-opacity:0;stroke:#2ca02c;stroke-linejoin:miter;" x="284.725101" xlink:href="#mbcda9dfb15" y="219.482645"/>
     <use style="fill-opacity:0;stroke:#2ca02c;stroke-linejoin:miter;" x="303.209679" xlink:href="#mbcda9dfb15" y="211.559483"/>
     <use style="fill-opacity:0;stroke:#2ca02c;stroke-linejoin:miter;" x="321.694257" xlink:href="#mbcda9dfb15" y="216.269258"/>
     <use style="fill-opacity:0;stroke:#2ca02c;stroke-linejoin:miter;" x="340.178835" xlink:href="#mbcda9dfb15" y="234.631134"/>
     <use style="fill-opacity:0;stroke:#2ca02c;stroke-linejoin:miter;" x="358.663413" xlink:href="#mbcda9dfb15" y="250.875451"/>
     <use style="fill-opacity:0;stroke:#2ca02c;stroke-linejoin:miter;" x="377.147991" xlink:href="#mbcda9dfb15" y="241.535896"/>
     <use style="fill-opacity:0;stroke:#2ca02c;stroke-linejoin:miter;" x="432.601725" xlink:href="#mbcda9dfb15" y="279.744623"/>
     <use style="fill-opacity:0;stroke:#2ca02c;stroke-linejoin:miter;" x="469.570881" xlink:href="#mbcda9dfb15" y="300.47267"/>
    </g>
   </g>
   <g id="patch_3">
    <path d="M 61.985938 313.718125 
L 61.985938 22.318125 
" style="fill:none;stroke:#000000;stroke-linecap:square;stroke-linejoin:miter;stroke-width:0.8;"/>
   </g>
   <g id="patch_4">
    <path d="M 488.979687 313.718125 
L 488.979687 22.318125 
" style="fill:none;stroke:#000000;stroke-linecap:square;stroke-linejoin:miter;stroke-width:0.8;"/>
   </g>
   <g id="patch_5">
    <path d="M 61.985938 313.718125 
L 488.979688 313.718125 
" style="fill:none;stroke:#000000;stroke-linecap:square;stroke-linejoin:miter;stroke-width:0.8;"/>
   </g>
   <g id="patch_6">
    <path d="M 61.985938 22.318125 
L 488.979688 22.318125 
" style="fill:none;stroke:#000000;stroke-linecap:square;stroke-linejoin:miter;stroke-width:0.8;"/>
   </g>
   <g id="text_13">
    <!-- Binned Statistics -->
    <defs>
     <path d="M 34.28125 27.484375 
Q 23.390625 27.484375 19.1875 25 
Q 14.984375 22.515625 14.984375 16.5 
Q 14.984375 11.71875 18.140625 8.90625 
Q 21.296875 6.109375 26.703125 6.109375 
Q 34.1875 6.109375 38.703125 11.40625 
Q 43.21875 16.703125 43.21875 25.484375 
L 43.21875 27.484375 
z
M 52.203125 31.203125 
L 52.203125 0 
L 43.21875 0 
L 43.21875 8.296875 
Q 40.140625 3.328125 35.546875 0.953125 
Q 30.953125 -1.421875 24.3125 -1.421875 
Q 15.921875 -1.421875 10.953125 3.296875 
Q 6 8.015625 6 15.921875 
Q 6 25.140625 12.171875 29.828125 
Q 18.359375 34.515625 30.609375 34.515625 
L 43.21875 34.515625 
L 43.21875 35.40625 
Q 43.21875 41.609375 39.140625 45 
Q 35.0625 48.390625 27.6875 48.390625 
Q 23 48.390625 18.546875 47.265625 
Q 14.109375 46.140625 10.015625 43.890625 
L 10.015625 52.203125 
Q 14.9375 54.109375 19.578125 55.046875 
Q 24.21875 56 28.609375 56 
Q 40.484375 56 46.34375 49.84375 
Q 52.203125 43.703125 52.203125 31.203125 
z
" id="DejaVuSans-97"/>
     <path d="M 48.78125 52.59375 
L 48.78125 44.1875 
Q 44.96875 46.296875 41.140625 47.34375 
Q 37.3125 48.390625 33.40625 48.390625 
Q 24.65625 48.390625 19.8125 42.84375 
Q 14.984375 37.3125 14.984375 27.296875 
Q 14.984375 17.28125 19.8125 11.734375 
Q 24.65625 6.203125 33.40625 6.203125 
Q 37.3125 6.203125 41.140625 7.25 
Q 44.96875 8.296875 48.78125 10.40625 
L 48.78125 2.09375 
Q 45.015625 0.34375 40.984375 -0.53125 
Q 36.96875 -1.421875 32.421875 -1.421875 
Q 20.0625 -1.421875 12.78125 6.34375 
Q 5.515625 14.109375 5.515625 27.296875 
Q 5.515625 40.671875 12.859375 48.328125 
Q 20.21875 56 33.015625 56 
Q 37.15625 56 41.109375 55.140625 
Q 45.0625 54.296875 48.78125 52.59375 
z
" id="DejaVuSans-99"/>
    </defs>
    <g transform="translate(225.26 16.318125)scale(0.12 -0.12)">
     <use xlink:href="#DejaVuSans-66"/>
     <use x="68.603516" xlink:href="#DejaVuSans-105"/>
     <use x="96.386719" xlink:href="#DejaVuSans-110"/>
     <use x="159.765625" xlink:href="#DejaVuSans-110"/>
     <use x="223.144531" xlink:href="#DejaVuSans-101"/>
     <use x="284.667969" xlink:href="#DejaVuSans-100"/>
     <use x="348.144531" xlink:href="#DejaVuSans-32"/>
     <use x="379.931641" xlink:href="#DejaVuSans-83"/>
     <use x="443.408203" xlink:href="#DejaVuSans-116"/>
     <use x="482.617188" xlink:href="#DejaVuSans-97"/>
     <use x="543.896484" xlink:href="#DejaVuSans-116"/>
     <use x="583.105469" xlink:href="#DejaVuSans-105"/>
     <use x="610.888672" xlink:href="#DejaVuSans-115"/>
     <use x="662.988281" xlink:href="#DejaVuSans-116"/>
     <use x="702.197266" xlink:href="#DejaVuSans-105"/>
     <use x="729.980469" xlink:href="#DejaVuSans-99"/>
     <use x="784.960938" xlink:href="#DejaVuSans-115"/>
    </g>
   </g>
   <g id="legend_1">
    <g id="patch_7">
     <path d="M 68.985938 74.3525 
L 129.345313 74.3525 
Q 131.345313 74.3525 131.345313 72.3525 
L 131.345313 29.318125 
Q 131.345313 27.318125 129.345313 27.318125 
L 68.985938 27.318125 
Q 66.985938 27.318125 66.985938 29.318125 
L 66.985938 72.3525 
Q 66.985938 74.3525 68.985938 74.3525 
z
" style="fill:#ffffff;opacity:0.8;stroke:#cccccc;stroke-linejoin:miter;"/>
    </g>
    <g id="LineCollection_4">
     <path d="M 80.985938 40.416562 
L 80.985938 30.416562 
" style="fill:none;stroke:#1f77b4;stroke-width:1.5;"/>
    </g>
    <g id="line2d_30">
     <g>
      <use style="fill:#1f77b4;stroke:#1f77b4;" x="80.985938" xlink:href="#m226f25eb0c" y="40.416562"/>
     </g>
    </g>
    <g id="line2d_31">
     <g>
      <use style="fill:#1f77b4;stroke:#1f77b4;" x="80.985938" xlink:href="#m226f25eb0c" y="30.416562"/>
     </g>
    </g>
    <g id="line2d_32">
     <path d="M 70.985938 35.416562 
L 90.985938 35.416562 
" style="fill:none;stroke:#1f77b4;stroke-linecap:square;stroke-width:1.5;"/>
    </g>
    <g id="line2d_33">
     <g>
      <use style="fill-opacity:0;stroke:#1f77b4;stroke-linejoin:miter;" x="80.985938" xlink:href="#m08449abdde" y="35.416562"/>
     </g>
    </g>
    <g id="text_14">
     <!-- max -->
     <defs>
      <path d="M 54.890625 54.6875 
L 35.109375 28.078125 
L 55.90625 0 
L 45.3125 0 
L 29.390625 21.484375 
L 13.484375 0 
L 2.875 0 
L 24.125 28.609375 
L 4.6875 54.6875 
L 15.28125 54.6875 
L 29.78125 35.203125 
L 44.28125 54.6875 
z
" id="DejaVuSans-120"/>
     </defs>
     <g transform="translate(98.985938 38.916562)scale(0.1 -0.1)">
      <use xlink:href="#DejaVuSans-109"/>
      <use x="97.412109" xlink:href="#DejaVuSans-97"/>
      <use x="158.691406" xlink:href="#DejaVuSans-120"/>
     </g>
    </g>
    <g id="LineCollection_5">
     <path d="M 80.985938 55.094687 
L 80.985938 45.094687 
" style="fill:none;stroke:#ff7f0e;stroke-width:1.5;"/>
    </g>
    <g id="line2d_34">
     <g>
      <use style="fill:#ff7f0e;stroke:#ff7f0e;" x="80.985938" xlink:href="#m75d2d83b6d" y="55.094687"/>
     </g>
    </g>
    <g id="line2d_35">
     <g>
      <use style="fill:#ff7f0e;stroke:#ff7f0e;" x="80.985938" xlink:href="#m75d2d83b6d" y="45.094687"/>
     </g>
    </g>
    <g id="line2d_36">
     <path d="M 70.985938 50.094687 
L 90.985938 50.094687 
" style="fill:none;stroke:#ff7f0e;stroke-linecap:square;stroke-width:1.5;"/>
    </g>
    <g id="line2d_37">
     <g>
      <use style="fill-opacity:0;stroke:#ff7f0e;" x="80.985938" xlink:href="#m45797baab6" y="50.094687"/>
     </g>
    </g>
    <g id="text_15">
     <!-- mean -->
     <g transform="translate(98.985938 53.594687)scale(0.1 -0.1)">
      <use xlink:href="#DejaVuSans-109"/>
      <use x="97.412109" xlink:href="#DejaVuSans-101"/>
      <use x="158.935547" xlink:href="#DejaVuSans-97"/>
      <use x="220.214844" xlink:href="#DejaVuSans-110"/>
     </g>
    </g>
    <g id="LineCollection_6">
     <path d="M 80.985938 69.772812 
L 80.985938 59.772812 
" style="fill:none;stroke:#2ca02c;stroke-width:1.5;"/>
    </g>
    <g id="line2d_38">
     <g>
      <use style="fill:#2ca02c;stroke:#2ca02c;" x="80.985938" xlink:href="#m82f800b513" y="69.772812"/>
     </g>
    </g>
    <g id="line2d_39">
     <g>
      <use style="fill:#2ca02c;stroke:#2ca02c;" x="80.985938" xlink:href="#m82f800b513" y="59.772812"/>
     </g>
    </g>
    <g id="line2d_40">
     <path d="M 70.985938 64.772812 
L 90.985938 64.772812 
" style="fill:none;stroke:#2ca02c;stroke-linecap:square;stroke-width:1.5;"/>
    </g>
    <g id="line2d_41">
     <g>
      <use style="fill-opacity:0;stroke:#2ca02c;stroke-linejoin:miter;" x="80.985938" xlink:href="#mbcda9dfb15" y="64.772812"/>
     </g>
    </g>
    <g id="text_16">
     <!-- min -->
     <g transform="translate(98.985938 68.272812)scale(0.1 -0.1)">
      <use xlink:href="#DejaVuSans-109"/>
      <use x="97.412109" xlink:href="#DejaVuSans-105"/>
      <use x="125.195312" xlink:href="#DejaVuSans-110"/>
     </g>
    </g>
   </g>
  </g>
 </g>
 <defs>
  <clipPath id="pd090592e11">
   <rect height="291.4" width="426.99375" x="61.985938" y="22.318125"/>
  </clipPath>
 </defs>
</svg>
